# xmcd
#
# Track frame offsets: 
#        150
#        16275
#        31150
#        52970
#        67192
#        86155
#        102287
#        126400
#        146670
#        161735
#        176180
#        192892
#        210820
#        227025
#
# Disc length: 3298 seconds
#
# Revision: 3
# Processed by: cddbd v1.5.2PL0 Copyright (c) Steve Scherf et al.
# Submitted via: ExactAudioCopyFreeDBPlugin 1.0
#
DISCID=c20ce00e
DTITLE=Alabama - G R E A T E S T   H I T S   -   (Silver Collection)  
DTITLE=Various Artist -    1 9 9 2
DYEAR=1992
DGENRE=Country Pop
TTITLE0=Feels So Right  1981
TTITLE1=Love In The First Degree  1981
TTITLE2=Take Me Down1982
TTITLE3=Old Flame  1981
TTITLE4=Mountain Music  1982
TTITLE5=Close Enough To Perfect  1982
TTITLE6=Dixieland Delight  1983
TTITLE7=If You're Gonna Play In Texas  1994
TTITLE8=40 hour week (For A Livin')  1985
TTITLE9=Song Of The South  1988
TTITLE10=Touch Me When We're Dancing  1986
TTITLE11=Lady Down On Love  1983
TTITLE12=When We Make Love  1984
TTITLE13=The Closer You Get  1983
EXTD=YEAR: 1992
EXTT0=
EXTT1=
EXTT2=
EXTT3=
EXTT4=
EXTT5=
EXTT6=
EXTT7=
EXTT8=
EXTT9=
EXTT10=
EXTT11=
EXTT12=
EXTT13=
PLAYORDER=
